<svg width="24" height="24" viewBox="0 0 24 24" fill="none" xmlns="http://www.w3.org/2000/svg">
<path d="M19.0001 9.11261C19.0004 9.25922 18.9714 9.40445 18.9145 9.53984C18.8577 9.67523 18.7743 9.79808 18.6691 9.90127L12.784 15.6782C12.5742 15.8844 12.2907 16.0001 11.9951 16.0001C11.6996 16.0001 11.416 15.8844 11.2063 15.6782L5.33106 9.91113C5.1202 9.70392 5.00108 9.42224 4.99992 9.12806C4.99875 8.83387 5.11563 8.55127 5.32484 8.34243C5.53405 8.13359 5.81846 8.01562 6.1155 8.01446C6.41254 8.0133 6.69788 8.12906 6.90874 8.33627L12.0001 13.332L17.0915 8.32641C17.2485 8.17205 17.4482 8.06722 17.6653 8.02515C17.8824 7.98308 18.1073 8.00565 18.3115 8.09002C18.5157 8.1744 18.69 8.31678 18.8126 8.49922C18.9352 8.68165 19.0004 8.89595 19.0001 9.11507L19.0001 9.11261Z" fill="#9C9C9C"/>
</svg>
